# xmcd
#
# Track frame offsets:
#	150
#	21157
#	45149
#	65551
#	86783
#	107135
#	133193
#	154754
#	177804
#	205261
#
# Disc length: 3019 seconds
#
# Revision: 1
# Processed by: cddbd v1.5.2PL0 Copyright (c) Steve Scherf et al.
# Submitted via: audiograbber 1.83.01
#
DISCID=820bc90a
DTITLE=K-DANS - BAGAY YO CHANGE
DYEAR=2007
DGENRE=WORLD
TTITLE0=CASINO
TTITLE1=MOVE CHWA
TTITLE2=INTERNET INCONNU .COM
TTITLE3=CHER PAPA
TTITLE4=GIVE IT UP
TTITLE5=DESTINY
TTITLE6=VERITE.aif
TTITLE7=CORALYNE
TTITLE8=BAGAY YO CHAMJE
TTITLE9=CHER PAPA FEAT TONY MANCIN
EXTD=
EXTT0=
EXTT1=
EXTT2=
EXTT3=
EXTT4=
EXTT5=
EXTT6=
EXTT7=
EXTT8=
EXTT9=
PLAYORDER=
